<svg xmlns="http://www.w3.org/2000/svg" xmlns:xlink="http://www.w3.org/1999/xlink" width="500" zoomAndPan="magnify" viewBox="0 0 375 374.999991" height="500" preserveAspectRatio="xMidYMid meet" version="1.0"><defs><g/><clipPath id="fd6b183567"><path d="M 189.371094 0 L 375 0 L 375 255.707031 L 189.371094 255.707031 Z M 189.371094 0 " clip-rule="nonzero"/></clipPath><clipPath id="021e1ee140"><path d="M 208.371094 0 L 375 0 L 375 219.871094 L 208.371094 219.871094 Z M 208.371094 0 " clip-rule="nonzero"/></clipPath><clipPath id="00765a1f4b"><path d="M 237 0 L 375 0 L 375 177.871094 L 237 177.871094 Z M 237 0 " clip-rule="nonzero"/></clipPath><clipPath id="fb2a28446a"><path d="M 309 0 L 375 0 L 375 128.871094 L 309 128.871094 Z M 309 0 " clip-rule="nonzero"/></clipPath><clipPath id="fc5aa8a380"><path d="M 109 81 L 176 81 L 176 313 L 109 313 Z M 109 81 " clip-rule="nonzero"/></clipPath><clipPath id="6a99b2daaf"><path d="M 17.300781 303.714844 L 36.496094 71.257812 L 268.957031 90.453125 L 249.761719 322.910156 Z M 17.300781 303.714844 " clip-rule="nonzero"/></clipPath><clipPath id="84a1f35083"><path d="M 17.300781 303.714844 L 36.496094 71.257812 L 268.957031 90.453125 L 249.761719 322.910156 Z M 17.300781 303.714844 " clip-rule="nonzero"/></clipPath><clipPath id="69e0523c8e"><path d="M 125 133.382812 L 245 133.382812 L 245 313.382812 L 125 313.382812 Z M 125 133.382812 " clip-rule="nonzero"/></clipPath><clipPath id="671d833c9f"><path d="M 211 203 L 260 203 L 260 287 L 211 287 Z M 211 203 " clip-rule="nonzero"/></clipPath><clipPath id="5f7d75211c"><path d="M 282.253906 223.414062 L 260.859375 289.011719 L 190.980469 266.21875 L 212.375 200.621094 Z M 282.253906 223.414062 " clip-rule="nonzero"/></clipPath><clipPath id="3d4668b9c5"><path d="M 282.253906 223.414062 L 260.859375 289.011719 L 190.980469 266.21875 L 212.375 200.621094 Z M 282.253906 223.414062 " clip-rule="nonzero"/></clipPath><clipPath id="66ac83f1a3"><path d="M 140 220 L 166 220 L 166 303 L 140 303 Z M 140 220 " clip-rule="nonzero"/></clipPath><clipPath id="46b014ed51"><path d="M 151.296875 306.730469 L 113.074219 259.511719 L 163.789062 218.457031 L 202.011719 265.675781 Z M 151.296875 306.730469 " clip-rule="nonzero"/></clipPath><clipPath id="10b059dbcf"><path d="M 112.902344 259.300781 L 151.125 306.519531 L 201.84375 265.46875 L 163.621094 218.25 Z M 112.902344 259.300781 " clip-rule="nonzero"/></clipPath></defs><g clip-path="url(#fd6b183567)"><path fill="#490000" d="M 191.703125 -6.125 L 378.375 -6.125 L 378.375 255.707031 C 349.902344 243.960938 318.535156 209.449219 304.6875 174.394531 C 289.507812 135.980469 303.667969 117.921875 283.78125 92.667969 C 256.753906 58.351562 216.410156 73.675781 197.300781 42.300781 C 188.660156 28.113281 188.101562 10.515625 191.703125 -6.125 Z M 191.703125 -6.125 " fill-opacity="1" fill-rule="nonzero"/></g><g clip-path="url(#021e1ee140)"><path fill="#700707" d="M 378.375 219.222656 C 355.949219 203.082031 334.492188 176.074219 323.691406 148.738281 C 308.515625 110.320312 322.671875 92.261719 302.785156 67.007812 C 275.761719 32.691406 235.414062 48.015625 216.308594 16.640625 C 212.082031 9.699219 209.785156 1.9375 208.964844 -6.125 L 378.375 -6.125 Z M 378.375 219.222656 " fill-opacity="1" fill-rule="nonzero"/></g><g clip-path="url(#00765a1f4b)"><path fill="#8b0202" d="M 378.375 177.0625 C 363.417969 161.75 350.367188 142.496094 342.695312 123.078125 C 327.515625 84.664062 341.675781 66.601562 321.789062 41.351562 C 295.636719 8.140625 257.003906 21.421875 237.21875 -6.125 L 378.375 -6.125 Z M 378.375 177.0625 " fill-opacity="1" fill-rule="nonzero"/></g><g clip-path="url(#fb2a28446a)"><path fill="#a60000" d="M 378.375 -6.125 L 378.375 128.261719 C 371.605469 118.433594 365.863281 107.949219 361.703125 97.417969 C 346.523438 59.003906 360.679688 40.945312 340.796875 15.691406 C 331.417969 3.785156 320.433594 -2.148438 309.289062 -6.125 Z M 378.375 -6.125 " fill-opacity="1" fill-rule="nonzero"/></g><g clip-path="url(#fc5aa8a380)"><g clip-path="url(#6a99b2daaf)"><g clip-path="url(#84a1f35083)"><path fill="#ff1616" d="M 133.457031 312.472656 C 129.664062 307.128906 126.695312 301.515625 124.304688 295.703125 C 118.671875 282.019531 117.148438 267.445312 119.101562 253.253906 C 120.460938 243.375 123.632812 233.808594 128.492188 224.929688 C 130.84375 220.632812 133.582031 216.507812 136.703125 212.589844 C 139.734375 208.777344 143.078125 205.117188 146.890625 201.804688 C 153.898438 195.480469 159.742188 188.359375 164.15625 180.566406 C 170.953125 168.578125 174.683594 155.269531 175.121094 141.808594 C 175.820312 120.367188 168.398438 98.699219 152.5 81.902344 C 165.871094 99.5625 170.785156 120.859375 168.078125 141.226562 C 166.484375 153.214844 162.113281 164.765625 155.214844 175.039062 C 150.867188 181.515625 145.5 187.457031 139.066406 192.574219 C 134.542969 196.3125 130.441406 200.375 126.917969 204.804688 C 123.289062 209.367188 120.207031 214.265625 117.734375 219.40625 C 112.734375 229.816406 109.972656 241.097656 109.613281 252.46875 C 109.402344 259.226562 109.996094 265.988281 111.5 272.617188 C 114.808594 287.257812 122.113281 301.054688 133.457031 312.472656 Z M 133.457031 312.472656 " fill-opacity="1" fill-rule="evenodd"/></g></g></g><g clip-path="url(#69e0523c8e)"><path fill="#000000" d="M 242.941406 261.984375 C 235.46875 229.308594 210.566406 218.132812 210.566406 218.132812 C 210.566406 218.132812 214.015625 224.941406 215.941406 234.585938 C 217.867188 244.570312 216.226562 256.253906 207.28125 261.871094 C 201.679688 265.390625 193.300781 264.367188 188.375 259.601562 C 182.941406 254.441406 181.753906 246.214844 184.132812 239.179688 C 185.035156 236.171875 186.621094 233.167969 188.375 230.445312 C 189.054688 229.367188 189.734375 228.289062 190.359375 227.210938 L 194.660156 220.175781 C 211.980469 192.207031 207.226562 155.960938 183.339844 133.382812 C 183.339844 133.382812 195.453125 162.652344 163.585938 194.589844 C 148.699219 209.511719 135 226.644531 128.71875 246.328125 C 124.867188 258.523438 124.1875 272.195312 129 284.222656 C 134.265625 297.554688 144.960938 308.164062 158.09375 313.382812 C 113.039062 272.761719 135.339844 238.726562 170.320312 206.277344 C 176.207031 200.71875 185.714844 206.449219 183.453125 214.21875 C 182.488281 217.453125 181.074219 220.574219 179.148438 223.410156 C 169.359375 237.136719 167.148438 255.460938 179.714844 268.394531 C 185.488281 274.296875 193.808594 277.1875 202.074219 276.621094 C 212.261719 275.828125 220.015625 269.871094 224.660156 261.757812 C 226.300781 258.863281 230.660156 259.375 231.507812 262.609375 C 231.507812 262.664062 231.507812 262.664062 231.507812 262.722656 C 235.074219 277.867188 231.847656 293.1875 221.601562 305.210938 C 219.167969 308.164062 216.453125 310.941406 213.394531 313.382812 C 217.242188 312.359375 220.921875 310.488281 224.261719 308.21875 C 239.488281 297.894531 247.015625 279.628906 242.941406 261.984375 Z M 242.941406 261.984375 " fill-opacity="1" fill-rule="nonzero"/></g><g clip-path="url(#671d833c9f)"><g clip-path="url(#5f7d75211c)"><g clip-path="url(#3d4668b9c5)"><path fill="#ff1616" d="M 211.40625 203.253906 C 245.554688 211.519531 272.296875 253.839844 253.792969 286.675781 L 253.167969 286.472656 C 257.722656 252.390625 245.40625 216.734375 211.199219 203.878906 Z M 211.40625 203.253906 " fill-opacity="1" fill-rule="nonzero"/></g></g></g><g clip-path="url(#66ac83f1a3)"><g clip-path="url(#46b014ed51)"><g clip-path="url(#10b059dbcf)"><path fill="#ff1616" d="M 165.054688 220.277344 C 139.457031 237.886719 130.734375 281.285156 156.386719 302.5625 L 156.839844 302.199219 C 142.3125 275.488281 141.226562 242.148438 165.417969 220.730469 Z M 165.054688 220.277344 " fill-opacity="1" fill-rule="nonzero"/></g></g></g><g fill="#ff1616" fill-opacity="1"><g transform="translate(60.550006, 355.499977)"><g><path d="M 26.359375 -12.558594 C 25.519531 -10.121094 23.558594 -8.480469 21.160156 -8.320312 C 21.199219 -8.480469 21.238281 -8.597656 21.320312 -8.757812 L 26.476562 -23.796875 C 26.796875 -24.757812 26.957031 -25.636719 26.957031 -26.558594 C 26.957031 -31.316406 22.480469 -34.71875 17.277344 -34.71875 C 13.398438 -34.71875 8.558594 -32.878906 6.519531 -26.957031 L 1.238281 -11.597656 C 0.839844 -10.398438 0.558594 -9.121094 0.558594 -8 C 0.558594 -2.839844 4.878906 0 9.71875 0 C 12.71875 0 15.878906 -0.839844 18.4375 -3.800781 C 19.160156 -3.679688 19.957031 -3.558594 20.796875 -3.558594 C 25.71875 -3.558594 29.957031 -6.878906 31.039062 -11.160156 C 31.117188 -11.519531 31.15625 -11.839844 31.15625 -12.121094 C 31.15625 -13.640625 30.039062 -14.359375 28.878906 -14.359375 C 27.796875 -14.359375 26.679688 -13.757812 26.359375 -12.558594 Z M 9.917969 -5.039062 C 8.160156 -5.039062 6.757812 -6.238281 6.757812 -8 C 6.757812 -8.398438 6.839844 -8.917969 7.039062 -9.4375 L 12.71875 -25.878906 C 13.640625 -28.558594 15.679688 -29.679688 17.398438 -29.679688 C 19.199219 -29.679688 20.640625 -28.4375 20.640625 -26.71875 C 20.640625 -26.316406 20.558594 -25.917969 20.398438 -25.4375 L 16.277344 -13.320312 C 15.960938 -13.4375 15.4375 -13.558594 15.039062 -13.558594 C 13.078125 -13.558594 11.519531 -12 11.519531 -10.078125 C 11.519531 -8.878906 12.078125 -8.078125 13.320312 -6.640625 C 12.359375 -5.601562 11.160156 -5.039062 9.917969 -5.039062 Z M 9.917969 -5.039062 "/></g></g></g><g fill="#000000" fill-opacity="1"><g transform="translate(85.194536, 355.499977)"><g><path d="M 5.480469 -6.519531 L 13.878906 -30.839844 C 14.039062 -31.316406 14.117188 -31.796875 14.117188 -32.199219 C 14.117188 -33.71875 12.679688 -34.71875 11.480469 -34.71875 C 9.960938 -34.71875 8.960938 -33.878906 8.320312 -32.078125 L 0 -8.320312 C -0.320312 -7.398438 -0.480469 -6.558594 -0.480469 -5.71875 C -0.480469 -2.039062 2.558594 0 6.078125 0 C 9.878906 0 14.640625 -2.359375 17.4375 -10.679688 C 17.519531 -10.960938 17.558594 -11.238281 17.558594 -11.480469 C 17.558594 -12.757812 16.4375 -13.679688 15.199219 -13.679688 C 14.199219 -13.679688 13.121094 -13.078125 12.558594 -11.597656 C 10.757812 -6.800781 8.441406 -4.757812 6.558594 -4.757812 C 5.757812 -4.757812 5.320312 -5.238281 5.320312 -5.839844 C 5.320312 -6 5.398438 -6.28125 5.480469 -6.519531 Z M 5.480469 -6.519531 "/></g></g></g><g fill="#000000" fill-opacity="1"><g transform="translate(96.353429, 355.499977)"><g><path d="M 5.519531 -6.878906 L 9.960938 -19.480469 C 10.121094 -19.917969 10.199219 -20.320312 10.199219 -20.71875 C 10.199219 -22.359375 8.757812 -23.480469 7.28125 -23.480469 C 6.160156 -23.480469 4.960938 -22.796875 4.398438 -21.199219 L -0.441406 -7.441406 C -0.71875 -6.679688 -0.839844 -5.917969 -0.839844 -5.199219 C -0.839844 -2.480469 1.078125 -0.519531 3.679688 0 C -1.199219 1.078125 -6.039062 3.078125 -6.039062 8 C -6.039062 11.878906 -2.441406 14.4375 1.480469 14.4375 C 5.441406 14.4375 9.160156 12.320312 10.839844 7.679688 C 11.398438 6 12.039062 4.238281 12.640625 2.601562 C 18.359375 0.800781 24.238281 -2.320312 27 -10.71875 C 27.117188 -11.039062 27.160156 -11.359375 27.160156 -11.640625 C 27.160156 -13 26.117188 -13.800781 24.917969 -13.800781 C 23.839844 -13.800781 22.679688 -13.121094 22.117188 -11.558594 C 20.640625 -7.480469 17.957031 -5.078125 14.839844 -3.480469 L 20.480469 -19.757812 C 20.597656 -20.117188 20.640625 -20.4375 20.640625 -20.71875 C 20.640625 -22.359375 19.199219 -23.480469 17.71875 -23.480469 C 16.597656 -23.480469 15.398438 -22.796875 14.839844 -21.199219 L 10.238281 -7.679688 C 8.960938 -5.519531 7.558594 -4.71875 6.480469 -4.71875 C 5.757812 -4.71875 5.320312 -5.160156 5.320312 -5.878906 C 5.320312 -6.160156 5.398438 -6.519531 5.519531 -6.878906 Z M 5.320312 4.441406 L 4.359375 7.160156 C 3.800781 8.640625 2.558594 9.398438 1.359375 9.398438 C 0.441406 9.398438 0.0390625 8.839844 0.0390625 8.121094 C 0.0390625 7.878906 0.078125 7.558594 0.199219 7.28125 C 0.761719 5.878906 2.71875 5.121094 5.320312 4.441406 Z M 5.320312 4.441406 "/></g></g></g><g fill="#000000" fill-opacity="1"><g transform="translate(117.151359, 355.499977)"><g><path d="M 35.4375 -13.398438 C 34.359375 -13.398438 33.199219 -12.800781 32.796875 -11.519531 C 31.039062 -6.71875 28.839844 -4.757812 26.957031 -4.757812 C 26.160156 -4.757812 25.757812 -5.238281 25.757812 -5.839844 C 25.757812 -6.039062 25.757812 -6.238281 25.839844 -6.398438 L 29.238281 -15.71875 C 29.476562 -16.480469 29.636719 -17.277344 29.636719 -17.957031 C 29.636719 -21.359375 26.636719 -23.480469 23 -23.480469 C 21.558594 -23.480469 19.480469 -23.117188 17.640625 -21.636719 C 16.800781 -22.597656 15.480469 -23.480469 13.160156 -23.480469 C 11.519531 -23.480469 10.558594 -23 9.839844 -22.558594 C 9.398438 -23.160156 8.519531 -23.480469 7.640625 -23.480469 C 6.398438 -23.480469 5.121094 -22.878906 4.640625 -21.71875 L -1.761719 -3.28125 C -1.878906 -2.917969 -1.917969 -2.601562 -1.917969 -2.320312 C -1.917969 -0.839844 -0.640625 0 0.761719 0 C 2.121094 0 3.480469 -0.800781 4.039062 -2.398438 L 8.800781 -16.078125 C 9.640625 -17.800781 10.917969 -18.757812 12.121094 -18.757812 C 12.917969 -18.757812 13.480469 -18.320312 13.480469 -17.597656 C 13.480469 -17.398438 13.4375 -17.117188 13.320312 -16.839844 L 8.640625 -3.839844 C 8.441406 -3.320312 8.320312 -2.800781 8.320312 -2.359375 C 8.320312 -0.839844 9.519531 0 10.878906 0 C 12.199219 0 13.640625 -0.800781 14.238281 -2.519531 L 18.839844 -15.519531 C 19.558594 -17.519531 21.078125 -18.757812 22.398438 -18.757812 C 23.117188 -18.757812 23.679688 -18.277344 23.679688 -17.519531 C 23.679688 -17.277344 23.636719 -17 23.519531 -16.640625 L 20.480469 -8.359375 C 20.160156 -7.441406 20 -6.519531 20 -5.679688 C 20 -2.039062 23 0 26.519531 0 C 30.476562 0 34.878906 -2.558594 37.636719 -10.558594 C 37.71875 -10.839844 37.796875 -11.121094 37.796875 -11.398438 C 37.796875 -12.679688 36.636719 -13.398438 35.4375 -13.398438 Z M 35.4375 -13.398438 "/></g></g></g><g fill="#000000" fill-opacity="1"><g transform="translate(148.588232, 355.499977)"><g><path d="M 21.796875 -11.519531 C 20.519531 -8.238281 18.199219 -6.121094 15.4375 -5.121094 L 15.800781 -5.960938 C 16.917969 -9 18.078125 -12.320312 19.199219 -15.398438 C 19.4375 -16.078125 19.558594 -16.757812 19.558594 -17.480469 C 19.558594 -20.71875 16.878906 -23.480469 13.757812 -23.480469 C 12.679688 -23.480469 11.398438 -23.277344 10.519531 -22.558594 C 10.597656 -23.519531 9.28125 -24.277344 7.839844 -24.277344 C 6.519531 -24.277344 5.238281 -23.558594 4.640625 -21.878906 L -5.320312 6.28125 C -5.519531 6.800781 -5.601562 7.238281 -5.601562 7.640625 C -5.601562 9.28125 -4.238281 10.121094 -2.800781 10.121094 C -1.480469 10.121094 -0.160156 9.480469 0.320312 8 L 3.519531 -1.480469 C 4.757812 -0.519531 7.160156 0 10.480469 0 C 18.238281 0 24.039062 -3.078125 26.679688 -10.640625 C 26.796875 -11 26.878906 -11.320312 26.878906 -11.597656 C 26.878906 -12.917969 25.757812 -13.71875 24.558594 -13.71875 C 23.480469 -13.71875 22.277344 -13.039062 21.796875 -11.519531 Z M 5.640625 -7.359375 L 8.839844 -16.640625 C 9.320312 -18.078125 10.359375 -18.757812 11.480469 -18.757812 C 12.4375 -18.757812 13.320312 -18.078125 13.320312 -17.078125 C 13.320312 -16.71875 13.238281 -16.359375 13.121094 -15.960938 C 12.121094 -12.800781 11 -9.839844 9.917969 -6.71875 C 9.480469 -5.519531 8.398438 -4.800781 7.320312 -4.757812 C 6.28125 -4.757812 5.480469 -5.320312 5.480469 -6.441406 C 5.480469 -6.71875 5.519531 -7.039062 5.640625 -7.359375 Z M 5.640625 -7.359375 "/></g></g></g><g fill="#000000" fill-opacity="1"><g transform="translate(169.066197, 355.499977)"><g><path d="M 10.757812 -27.160156 C 12.558594 -27.160156 14.039062 -28.636719 14.039062 -30.476562 C 14.039062 -32.277344 12.558594 -33.71875 10.757812 -33.71875 C 8.960938 -33.71875 7.480469 -32.277344 7.480469 -30.476562 C 7.480469 -28.636719 8.960938 -27.160156 10.757812 -27.160156 Z M 5.359375 -6.757812 L 9.757812 -19.320312 C 9.917969 -19.839844 10.121094 -20.398438 10.121094 -20.796875 C 10.121094 -22.558594 8.800781 -23.480469 7.441406 -23.480469 C 6.199219 -23.480469 4.878906 -22.597656 4.238281 -20.71875 C 2.960938 -16.957031 1.28125 -12.199219 0 -8.480469 C -0.238281 -7.679688 -0.558594 -6.597656 -0.558594 -5.917969 C -0.558594 -2.160156 2.558594 0 6.238281 0 C 10.160156 0 14.480469 -2.398438 17.277344 -10.679688 C 17.359375 -10.917969 17.398438 -11.160156 17.398438 -11.398438 C 17.398438 -12.640625 16.199219 -13.398438 15 -13.398438 C 13.917969 -13.398438 12.839844 -12.839844 12.359375 -11.597656 C 10.480469 -6.398438 8.359375 -4.757812 6.757812 -4.757812 C 5.839844 -4.757812 5.238281 -5.359375 5.238281 -6.121094 C 5.238281 -6.320312 5.28125 -6.519531 5.359375 -6.757812 Z M 5.359375 -6.757812 "/></g></g></g><g fill="#000000" fill-opacity="1"><g transform="translate(180.105098, 355.499977)"><g><path d="M 19.359375 -11.878906 C 17.320312 -6.71875 13.4375 -4.800781 10.398438 -4.800781 C 7.640625 -4.800781 5.878906 -6.398438 5.878906 -8.441406 C 5.878906 -8.878906 5.960938 -9.359375 6.121094 -9.878906 L 8.558594 -16.800781 C 8.917969 -17.757812 9.71875 -18.359375 10.359375 -18.359375 C 11.160156 -18.359375 11.558594 -17.878906 11.558594 -17.199219 C 11.558594 -16.757812 11.398438 -16.277344 11.121094 -15.71875 C 10.917969 -15.320312 10.800781 -14.917969 10.800781 -14.519531 C 10.800781 -13.121094 12.121094 -12.039062 13.519531 -12.039062 C 14.679688 -12.039062 15.917969 -12.757812 16.640625 -14.597656 C 17.039062 -15.679688 17.199219 -16.640625 17.199219 -17.558594 C 17.199219 -21.320312 14.078125 -23.480469 10.640625 -23.480469 C 7.480469 -23.480469 4.078125 -21.636719 2.640625 -17.4375 L 0.359375 -10.71875 C 0.0390625 -9.757812 -0.121094 -8.800781 -0.121094 -7.917969 C -0.121094 -3.320312 3.878906 0 9.757812 0 C 15.679688 0 21.519531 -3.359375 24.078125 -10.640625 C 24.199219 -10.917969 24.238281 -11.199219 24.238281 -11.4375 C 24.238281 -12.71875 23 -13.519531 21.757812 -13.519531 C 20.757812 -13.519531 19.757812 -13.039062 19.359375 -11.878906 Z M 19.359375 -11.878906 "/></g></g></g><g fill="#000000" fill-opacity="1"><g transform="translate(197.98332, 355.499977)"><g/></g></g><g fill="#ff1616" fill-opacity="1"><g transform="translate(213.268746, 355.499977)"><g><path d="M 19.839844 -34.71875 C 15.878906 -34.71875 11.878906 -32.476562 10.558594 -28.4375 C 10.320312 -27.636719 10.160156 -26.878906 10.160156 -26.117188 C 10.160156 -22.636719 12.558594 -20 14.839844 -17.199219 C 16.71875 -14.917969 18.480469 -13.039062 18.480469 -10.640625 C 18.480469 -7.398438 15.640625 -5.441406 13.039062 -5.441406 C 10.160156 -5.480469 7.878906 -7.160156 7.917969 -10 C 7.960938 -10.199219 7.960938 -10.398438 7.960938 -10.558594 C 7.960938 -12.839844 6.441406 -13.878906 4.878906 -13.878906 C 3.28125 -13.878906 1.640625 -12.71875 1.640625 -10.480469 C 1.441406 -4.121094 7.039062 0 13.078125 0 C 19.480469 0 25.277344 -5.039062 25.277344 -11.199219 C 25.277344 -15.359375 22.519531 -18.558594 20.078125 -21.277344 L 19.597656 -21.796875 C 18.078125 -23.4375 16.878906 -25.238281 16.878906 -26.71875 C 16.878906 -28.476562 18.917969 -29.238281 19.839844 -29.199219 C 21.078125 -29.117188 21.957031 -28.238281 22.636719 -26.878906 C 23.160156 -25.636719 24.199219 -25.078125 25.277344 -25.078125 C 26.71875 -25.078125 28.160156 -26.160156 28.160156 -28 C 28.160156 -28.398438 28.117188 -28.757812 28 -29.199219 C 27.078125 -32.316406 23.917969 -34.71875 19.839844 -34.71875 Z M 19.839844 -34.71875 "/></g></g></g><g fill="#000000" fill-opacity="1"><g transform="translate(240.467967, 355.499977)"><g><path d="M 14.277344 -11.277344 C 12.679688 -6.878906 10.160156 -4.757812 7.839844 -4.757812 C 6.398438 -4.757812 5.519531 -5.640625 5.519531 -6.71875 C 5.519531 -7 5.601562 -7.320312 5.679688 -7.597656 L 9.597656 -18.757812 L 12.199219 -18.757812 C 14.238281 -18.757812 15.320312 -20.199219 15.320312 -21.519531 C 15.320312 -22.558594 14.640625 -23.480469 13.121094 -23.480469 L 11.320312 -23.480469 L 14 -31.277344 C 14.078125 -31.558594 14.117188 -31.796875 14.117188 -32.039062 C 14.117188 -33.519531 13.078125 -34.71875 11.320312 -34.71875 C 10 -34.71875 8.878906 -33.796875 8.398438 -32.398438 L 5.199219 -23.480469 L 3.519531 -23.480469 C 1.359375 -23.480469 0.441406 -22.117188 0.441406 -20.839844 C 0.441406 -19.71875 1.121094 -18.757812 2.199219 -18.757812 L 3.519531 -18.757812 L 0.160156 -9.121094 L 0.160156 -9.160156 C -0.160156 -8.199219 -0.320312 -7.320312 -0.320312 -6.480469 C -0.320312 -2.398438 3.320312 0 7.441406 0 C 12.558594 0 16.839844 -3.800781 19.117188 -10.359375 C 19.199219 -10.640625 19.277344 -10.917969 19.277344 -11.160156 C 19.277344 -12.359375 18.117188 -13.121094 16.878906 -13.121094 C 15.878906 -13.121094 14.757812 -12.558594 14.277344 -11.277344 Z M 14.277344 -11.277344 "/></g></g></g><g fill="#000000" fill-opacity="1"><g transform="translate(253.546663, 355.499977)"><g><path d="M 25.078125 -13.519531 C 23.957031 -13.519531 22.71875 -12.839844 22.238281 -11.320312 C 20.679688 -6.398438 18.160156 -4.757812 16.359375 -4.757812 C 15.679688 -4.757812 15.277344 -5.121094 15.277344 -5.757812 C 15.277344 -6.078125 15.359375 -6.480469 15.480469 -6.917969 L 19.957031 -19.878906 C 20.117188 -20.359375 20.199219 -20.796875 20.199219 -21.199219 C 20.199219 -22.957031 18.757812 -23.878906 17.277344 -23.878906 C 16.160156 -23.878906 15 -23.359375 14.359375 -22.359375 C 13.519531 -22.878906 11.960938 -23.480469 9.917969 -23.480469 C 7.28125 -23.480469 4.398438 -22.039062 3.320312 -18.957031 L -0.441406 -8.199219 C -0.679688 -7.480469 -0.839844 -6.757812 -0.839844 -6.039062 C -0.839844 -2.71875 1.839844 0 5.359375 0 C 7.238281 0 9.160156 -0.839844 10.640625 -2.160156 C 11.917969 -0.320312 14.757812 0 15.960938 0 C 19.277344 0 23.71875 -1.679688 26.277344 -8.160156 C 26.839844 -9.71875 27.277344 -10.71875 27.277344 -11.4375 C 27.277344 -12.800781 26.238281 -13.519531 25.078125 -13.519531 Z M 11.878906 -13.917969 L 9.960938 -7.960938 C 9.121094 -5.359375 7.597656 -4.757812 6.757812 -4.757812 C 5.878906 -4.757812 5.441406 -5.320312 5.441406 -6.238281 C 5.441406 -6.757812 5.558594 -7.238281 5.679688 -7.597656 L 8.238281 -15.640625 C 9 -18.078125 10.121094 -18.398438 10.757812 -18.398438 C 11.519531 -18.398438 12.359375 -17.640625 12.359375 -16.277344 C 12.359375 -15.679688 12.199219 -14.917969 11.878906 -13.917969 Z M 11.878906 -13.917969 "/></g></g></g><g fill="#000000" fill-opacity="1"><g transform="translate(274.544579, 355.499977)"><g><path d="M 22.160156 -11.160156 C 20.757812 -7.121094 18.71875 -4.757812 16.71875 -4.757812 C 16.160156 -4.757812 15.960938 -5.078125 15.960938 -5.441406 C 15.960938 -5.757812 16.039062 -6.160156 16.160156 -6.519531 C 16.757812 -8.398438 16.957031 -8.878906 16.957031 -9.878906 C 16.957031 -10.839844 16.71875 -11.679688 16.160156 -12.277344 C 17.277344 -12.917969 18.320312 -13.917969 18.917969 -15.519531 C 19.160156 -16.199219 19.320312 -16.957031 19.320312 -17.679688 C 19.320312 -20.757812 16.878906 -23.480469 13.398438 -23.480469 C 12.640625 -23.480469 12.039062 -23.4375 11.320312 -23.199219 L 13.800781 -30.359375 C 14 -30.917969 14.160156 -31.4375 14.160156 -31.917969 C 14.160156 -33.679688 12.839844 -34.71875 11.4375 -34.71875 C 10.121094 -34.71875 9 -33.835938 8.320312 -31.917969 L -1.679688 -3.039062 C -1.761719 -2.71875 -1.800781 -2.480469 -1.800781 -2.199219 C -1.800781 -0.761719 -0.558594 0 0.800781 0 C 2.238281 0 3.757812 -0.839844 4.28125 -2.441406 L 6.71875 -10.078125 C 7.558594 -9.28125 8.398438 -9.039062 9.121094 -9.039062 C 9.917969 -9.039062 10.558594 -9.320312 10.917969 -9.480469 C 11.199219 -9.597656 10.800781 -8.757812 10.640625 -8.359375 C 10.238281 -7.28125 10.039062 -6.199219 10.039062 -5.199219 C 10.039062 -2.121094 11.960938 0 15.878906 0 C 21.277344 0 25.078125 -4.160156 27.078125 -10.359375 C 27.160156 -10.597656 27.199219 -10.800781 27.199219 -11 C 27.199219 -12.199219 25.957031 -12.917969 24.71875 -12.917969 C 23.636719 -12.917969 22.519531 -12.398438 22.160156 -11.160156 Z M 8.28125 -14.519531 L 9 -16.558594 C 9.71875 -18 10.960938 -18.757812 12.121094 -18.757812 C 13.121094 -18.757812 13.878906 -18.238281 13.878906 -17.359375 C 13.878906 -17.117188 13.839844 -16.878906 13.71875 -16.597656 C 13.359375 -15.679688 12.519531 -15.039062 11.558594 -14.757812 C 11.078125 -14.839844 10.640625 -14.917969 10.199219 -14.917969 C 9.398438 -14.917969 8.71875 -14.757812 8.28125 -14.519531 Z M 8.28125 -14.519531 "/></g></g></g><g fill="#000000" fill-opacity="1"><g transform="translate(295.502497, 355.499977)"><g><path d="M 20.238281 -11.277344 C 18.480469 -6.640625 14.277344 -4.757812 10.878906 -4.757812 C 7.960938 -4.757812 6.121094 -6.160156 6.121094 -8 C 6.121094 -8.359375 6.160156 -8.71875 6.320312 -9.121094 L 6.640625 -9.878906 C 7.800781 -9.160156 9.238281 -8.679688 10.839844 -8.679688 C 14.480469 -8.679688 17.679688 -10.960938 18.757812 -14.558594 C 18.957031 -15.320312 19.078125 -16.078125 19.078125 -16.757812 C 19.078125 -20.558594 16.078125 -23.480469 11.558594 -23.480469 C 8 -23.480469 4.519531 -21.398438 3.121094 -17.398438 L 0.761719 -10.558594 C 0.441406 -9.597656 0.238281 -8.640625 0.238281 -7.71875 C 0.238281 -2.960938 4.71875 0 10.558594 0 C 16.117188 0 22.4375 -2.71875 25.078125 -10.359375 C 25.199219 -10.679688 25.238281 -10.960938 25.238281 -11.199219 C 25.238281 -12.4375 24.117188 -13.121094 22.917969 -13.121094 C 21.796875 -13.121094 20.597656 -12.519531 20.238281 -11.277344 Z M 11.4375 -18.757812 C 12.558594 -18.757812 13.277344 -17.839844 13.277344 -16.679688 C 13.277344 -16.359375 13.238281 -16.039062 13.121094 -15.71875 C 12.71875 -14.398438 11.519531 -13.917969 10.320312 -13.917969 C 9.558594 -13.917969 8.800781 -14.078125 8.238281 -14.398438 L 9.078125 -16.800781 C 9.519531 -18.039062 10.519531 -18.757812 11.4375 -18.757812 Z M 11.4375 -18.757812 "/></g></g></g></svg>