<svg xmlns="http://www.w3.org/2000/svg" xmlns:xlink="http://www.w3.org/1999/xlink" width="500" zoomAndPan="magnify" viewBox="0 0 375 374.999991" height="500" preserveAspectRatio="xMidYMid meet" version="1.0"><defs><clipPath id="065f19bb85"><path d="M 186 0.0859375 L 375 0.0859375 L 375 261.835938 L 186 261.835938 Z M 186 0.0859375 " clip-rule="nonzero"/></clipPath><clipPath id="9e39342983"><path d="M 205 0.0859375 L 375 0.0859375 L 375 226 L 205 226 Z M 205 0.0859375 " clip-rule="nonzero"/></clipPath><clipPath id="3a351a25d6"><path d="M 233 0.0859375 L 375 0.0859375 L 375 184 L 233 184 Z M 233 0.0859375 " clip-rule="nonzero"/></clipPath><clipPath id="5e720a6756"><path d="M 305 0.0859375 L 375 0.0859375 L 375 135 L 305 135 Z M 305 0.0859375 " clip-rule="nonzero"/></clipPath></defs><g clip-path="url(#065f19bb85)"><path fill="#490000" d="M 188.332031 0.00390625 L 375.003906 0.00390625 L 375.003906 261.835938 C 346.53125 250.089844 315.164062 215.578125 301.316406 180.523438 C 286.136719 142.109375 300.296875 124.050781 280.410156 98.796875 C 253.382812 64.480469 213.039062 79.804688 193.929688 48.429688 C 185.289062 34.242188 184.730469 16.644531 188.332031 0.00390625 Z M 188.332031 0.00390625 " fill-opacity="1" fill-rule="nonzero"/></g><g clip-path="url(#9e39342983)"><path fill="#700707" d="M 375.003906 225.351562 C 352.578125 209.210938 331.121094 182.203125 320.320312 154.867188 C 305.144531 116.449219 319.300781 98.390625 299.414062 73.136719 C 272.390625 38.820312 232.042969 54.144531 212.9375 22.769531 C 208.710938 15.828125 206.414062 8.066406 205.59375 0.00390625 L 375.003906 0.00390625 Z M 375.003906 225.351562 " fill-opacity="1" fill-rule="nonzero"/></g><g clip-path="url(#3a351a25d6)"><path fill="#8b0202" d="M 375.003906 183.191406 C 360.046875 167.878906 346.996094 148.625 339.324219 129.207031 C 324.144531 90.792969 338.304688 72.730469 318.417969 47.480469 C 292.265625 14.269531 253.632812 27.550781 233.847656 0.00390625 L 375.003906 0.00390625 Z M 375.003906 183.191406 " fill-opacity="1" fill-rule="nonzero"/></g><g clip-path="url(#5e720a6756)"><path fill="#a60000" d="M 375.003906 0.00390625 L 375.003906 134.390625 C 368.234375 124.5625 362.492188 114.078125 358.332031 103.546875 C 343.152344 65.132812 357.308594 47.074219 337.425781 21.820312 C 328.046875 9.914062 317.0625 3.980469 305.917969 0.00390625 Z M 375.003906 0.00390625 " fill-opacity="1" fill-rule="nonzero"/></g></svg>